<mxfile host="app.diagrams.net" agent="Mozilla/5.0 (Windows NT 10.0; Win64; x64) AppleWebKit/537.36 (KHTML, like Gecko) Chrome/137.0.0.0 Safari/537.36 OPR/121.0.0.0" version="28.2.5">
  <diagram name="Página-1" id="7BWnOxYAYJGfvrASUWoU">
    <mxGraphModel grid="0" page="0" gridSize="10" guides="1" tooltips="1" connect="1" arrows="1" fold="1" pageScale="1" pageWidth="827" pageHeight="1169" math="0" shadow="0">
      <root>
        <mxCell id="0" />
        <mxCell id="1" parent="0" />
        <mxCell id="zROEvBxPJg2SuVajR6uk-11" value="" style="rounded=0;whiteSpace=wrap;html=1;" vertex="1" parent="1">
          <mxGeometry x="282" y="-124" width="196" height="496" as="geometry" />
        </mxCell>
        <mxCell id="zROEvBxPJg2SuVajR6uk-8" style="edgeStyle=none;curved=1;rounded=0;orthogonalLoop=1;jettySize=auto;html=1;entryX=0;entryY=0.5;entryDx=0;entryDy=0;fontSize=12;startSize=8;endSize=8;" edge="1" parent="1" source="zROEvBxPJg2SuVajR6uk-1" target="zROEvBxPJg2SuVajR6uk-3">
          <mxGeometry relative="1" as="geometry" />
        </mxCell>
        <mxCell id="zROEvBxPJg2SuVajR6uk-9" style="edgeStyle=none;curved=1;rounded=0;orthogonalLoop=1;jettySize=auto;html=1;entryX=0;entryY=0.5;entryDx=0;entryDy=0;fontSize=12;startSize=8;endSize=8;" edge="1" parent="1" source="zROEvBxPJg2SuVajR6uk-1" target="zROEvBxPJg2SuVajR6uk-6">
          <mxGeometry relative="1" as="geometry" />
        </mxCell>
        <mxCell id="zROEvBxPJg2SuVajR6uk-10" style="edgeStyle=none;curved=1;rounded=0;orthogonalLoop=1;jettySize=auto;html=1;entryX=0;entryY=0.5;entryDx=0;entryDy=0;fontSize=12;startSize=8;endSize=8;" edge="1" parent="1" source="zROEvBxPJg2SuVajR6uk-1" target="zROEvBxPJg2SuVajR6uk-4">
          <mxGeometry relative="1" as="geometry" />
        </mxCell>
        <mxCell id="zROEvBxPJg2SuVajR6uk-1" value="Admin" style="shape=umlActor;verticalLabelPosition=bottom;verticalAlign=top;html=1;" vertex="1" parent="1">
          <mxGeometry x="185" y="170" width="30" height="60" as="geometry" />
        </mxCell>
        <mxCell id="zROEvBxPJg2SuVajR6uk-3" value="Ver Todas las carreras" style="ellipse;whiteSpace=wrap;html=1;" vertex="1" parent="1">
          <mxGeometry x="306" y="81" width="140" height="70" as="geometry" />
        </mxCell>
        <mxCell id="zROEvBxPJg2SuVajR6uk-4" value="Actuallizar Carrera" style="ellipse;whiteSpace=wrap;html=1;" vertex="1" parent="1">
          <mxGeometry x="306" y="286" width="140" height="70" as="geometry" />
        </mxCell>
        <mxCell id="zROEvBxPJg2SuVajR6uk-5" value="Añadiir Carrera" style="ellipse;whiteSpace=wrap;html=1;" vertex="1" parent="1">
          <mxGeometry x="306" y="-19" width="140" height="70" as="geometry" />
        </mxCell>
        <mxCell id="zROEvBxPJg2SuVajR6uk-6" value="Eliminar Carrera" style="ellipse;whiteSpace=wrap;html=1;" vertex="1" parent="1">
          <mxGeometry x="310" y="190" width="140" height="70" as="geometry" />
        </mxCell>
        <mxCell id="zROEvBxPJg2SuVajR6uk-7" style="edgeStyle=none;curved=1;rounded=0;orthogonalLoop=1;jettySize=auto;html=1;entryX=0.052;entryY=0.317;entryDx=0;entryDy=0;entryPerimeter=0;fontSize=12;startSize=8;endSize=8;" edge="1" parent="1" source="zROEvBxPJg2SuVajR6uk-1" target="zROEvBxPJg2SuVajR6uk-5">
          <mxGeometry relative="1" as="geometry" />
        </mxCell>
        <mxCell id="zROEvBxPJg2SuVajR6uk-12" value="Carrera" style="text;html=1;align=center;verticalAlign=middle;resizable=0;points=[];autosize=1;strokeColor=none;fillColor=none;fontSize=16;" vertex="1" parent="1">
          <mxGeometry x="338" y="-115" width="72" height="31" as="geometry" />
        </mxCell>
      </root>
    </mxGraphModel>
  </diagram>
</mxfile>
